{"title":"X.2011.480p.BRRip.XviD.AC3-PRESTiGE","uid":6736824,"size":1921838907,"categoryP":"video","categoryS":"movies","magnet":"?xt=urn:btih:bc84372a2ae39b55fd06a230b40b4f1c386054f3&amp;dn=X.2011.480p.BRRip.XviD.AC3-PRESTiGE&amp;tr=udp%3A%2F%2Ftracker.openbittorrent.com%3A80&amp;tr=udp%3A%2F%2Fopen.demonii.com%3A1337&amp;tr=udp%3A%2F%2Ftracker.coppersurfer.tk%3A6969&amp;tr=udp%3A%2F%2Fexodus.desync.com%3A6969","seeders":0,"leechers":1,"uploader":"UltraTorrents","files":4,"time":1318358320,"description":"Cast:\nViva Bianca, Wayne Blair, Peter Docker\n\nPlot:\nHolly Rowe's retiring, kissing her callgirl life goodbye. She just has to get through her last night on the job. Shay Ryan's a teenage runaway, broke and alone. She just has to get through her first night as a hooker. Then fate throws them together on a job that goes horribly wrong and they're trapped on an out-of-control roller coaster ride, through the twilight zone of sex-for-sale. X is a sizzling adults-only thriller about love, chance, escape and the oldest profession experienced by two women, on a night that will change their lives forever.\n\n\nINFO, POSTER and TRAILER:\n        &lt;a href=&quot;\nhttp://www.sharepixon.net/movies/x&quot; rel=&quot;nofollow&quot; target=&quot;_NEW&quot;&gt;\nhttp://www.sharepixon.net/movies/x&lt;/a&gt;\n\n\t\n\nSCREENSHOTS:\n       &lt;a href=&quot;\nhttp://img.sharepixon.net/?v=x1tlt.png&quot; rel=&quot;nofollow&quot; target=&quot;_NEW&quot;&gt;\nhttp://img.sharepixon.net/?v=x1tlt.png&lt;/a&gt; &lt;a href=&quot;\nhttp://img.sharepixon.net/?v=x2nnn.png&quot; rel=&quot;nofollow&quot; target=&quot;_NEW&quot;&gt;\nhttp://img.sharepixon.net/?v=x2nnn.png&lt;/a&gt;\n\n\n\n\t\nID                               : 0\nFormat                           : MPEG-4 Visual\nFormat profile                   : Advanced Simple@L5\nFormat settings, BVOP            : 2\nFormat settings, QPel            : No\nFormat settings, GMC             : No warppoints\nFormat settings, Matrix          : Default (H.263)\nCodec ID                         : XVID\nCodec ID/Hint                    : XviD\nDuration                         : 1h 29mn\nBit rate                         : 2 354 Kbps\nWidth                            : 720 pixels\nHeight                           : 400 pixels\nDisplay aspect ratio             : 16:9\nFrame rate                       : 23.976 fps\nColor space                      : YUV\nChroma subsampling               : 4:2:0\nBit depth                        : 8 bits\nScan type                        : Progressive\nCompression mode                 : Lossy\nBits/(Pixel*Frame)               : 0.341\nStream size                      : 1.47 GiB (84%)\nWriting library                  : XviD 1.2.1 (UTC 2008-12-04)\n\n\n\n\nID                               : 1\nFormat                           : AC-3\nFormat/Info                      : Audio Coding 3\nMode extension                   : CM (complete main)\nCodec ID                         : 2000\nDuration                         : 1h 29mn\nBit rate mode                    : Constant\nBit rate                         : 448 Kbps\nChannel(s)                       : 6 channels\nChannel positions                : Front: L C R, Side: L R, LFE\nSampling rate                    : 48.0 KHz\nBit depth                        : 16 bits\nCompression mode                 : Lossy\nDelay relative to video          : 2ms\nStream size                      : 286 MiB (16%)\nAlignment                        : Split accross interleaves\nInterleave, duration             : 42 ms (1.00 video frame)\nInterleave, preload duration     : 500 ms         ","torrent":{"xt":"urn:btih:bc84372a2ae39b55fd06a230b40b4f1c386054f3","amp;dn":"X.2011.480p.BRRip.XviD.AC3-PRESTiGE","amp;tr":["udp%3A%2F%2Ftracker.openbittorrent.com%3A80","udp%3A%2F%2Fopen.demonii.com%3A1337","udp%3A%2F%2Ftracker.coppersurfer.tk%3A6969","udp%3A%2F%2Fexodus.desync.com%3A6969"],"infoHash":"bc84372a2ae39b55fd06a230b40b4f1c386054f3","infoHashBuffer":{"type":"Buffer","data":[188,132,55,42,42,227,155,85,253,6,162,48,180,11,79,28,56,96,84,243]},"announce":[],"urlList":[]}}